<svg xmlns="http://www.w3.org/2000/svg" viewBox="0 0 1600 900" style="background: white;">
  <!-- Enhanced styles for maximum browser legibility -->
  <defs>
    <style>
      .title { font-family: Arial, Helvetica, sans-serif; font-size: 28px; font-weight: bold; fill: #1e3a8a; text-anchor: middle; }
      .subtitle { font-family: Arial, Helvetica, sans-serif; font-size: 16px; fill: #475569; text-anchor: middle; }
      .node-num { font-family: Arial, Helvetica, sans-serif; font-size: 16px; font-weight: bold; fill: white; text-anchor: middle; }
      .node-label { font-family: Arial, Helvetica, sans-serif; font-size: 13px; font-weight: 600; fill: #1f2937; text-anchor: middle; }
      .flow-label { font-family: Arial, Helvetica, sans-serif; font-size: 15px; font-weight: bold; fill: #059669; text-anchor: middle; }
      .legend-title { font-family: Arial, Helvetica, sans-serif; font-size: 18px; font-weight: bold; fill: #1f2937; }
      .legend-text { font-family: Arial, Helvetica, sans-serif; font-size: 14px; fill: #374151; }
    </style>
    
    <marker id="arrow" markerWidth="10" markerHeight="8" refX="9" refY="4" orient="auto">
      <polygon points="0 0, 10 4, 0 8" fill="#059669" stroke="#059669"/>
    </marker>
  </defs>
  
  <!-- White background -->
  <rect width="1600" height="900" fill="white"/>
  
  <!-- Title -->
  <text x="800" y="50" class="title">HC-AG-1-ECLNTL: Clinical Trial Process (Expected)</text>
  <text x="800" y="80" class="subtitle">Pattern: ab(c|d)e(f|g|h)i(j|k)l(m|n|o)pqrst (36 possible paths)</text>
  
  <!-- Process nodes with high contrast -->
  <circle cx="100" cy="200" r="25" fill="#059669" stroke="#047857" stroke-width="3"/>
  <text x="100" y="207" class="node-num">S</text>
  <text x="100" y="240" class="node-label">START</text>
  
  <circle cx="220" cy="200" r="20" fill="#2563eb" stroke="#1d4ed8" stroke-width="2"/>
  <text x="220" y="207" class="node-num">1</text>
  <text x="220" y="235" class="node-label">Protocol</text>
  
  <circle cx="340" cy="200" r="20" fill="#2563eb" stroke="#1d4ed8" stroke-width="2"/>
  <text x="340" y="207" class="node-num">2</text>
  <text x="340" y="235" class="node-label">IRB Approval</text>
  
  <!-- Branch 1: Site Selection -->
  <circle cx="480" cy="150" r="20" fill="#f59e0b" stroke="#d97706" stroke-width="2"/>
  <text x="480" y="157" class="node-num">3</text>
  <text x="480" y="185" class="node-label">Hospital A</text>
  
  <circle cx="480" cy="250" r="20" fill="#f59e0b" stroke="#d97706" stroke-width="2"/>
  <text x="480" y="257" class="node-num">4</text>
  <text x="480" y="285" class="node-label">Hospital B</text>
  
  <!-- Join point -->
  <circle cx="600" cy="200" r="20" fill="#2563eb" stroke="#1d4ed8" stroke-width="2"/>
  <text x="600" y="207" class="node-num">5</text>
  <text x="600" y="235" class="node-label">Randomization</text>
  
  <!-- Branch 2: Patient Stratification -->
  <circle cx="740" cy="120" r="20" fill="#ef4444" stroke="#dc2626" stroke-width="2"/>
  <text x="740" y="127" class="node-num">6</text>
  <text x="740" y="155" class="node-label">Mild</text>
  
  <circle cx="740" cy="200" r="20" fill="#ef4444" stroke="#dc2626" stroke-width="2"/>
  <text x="740" y="207" class="node-num">7</text>
  <text x="740" y="235" class="node-label">Moderate</text>
  
  <circle cx="740" cy="280" r="20" fill="#ef4444" stroke="#dc2626" stroke-width="2"/>
  <text x="740" y="287" class="node-num">8</text>
  <text x="740" y="315" class="node-label">Severe</text>
  
  <!-- Continue with more nodes... -->
  <circle cx="860" cy="200" r="20" fill="#2563eb" stroke="#1d4ed8" stroke-width="2"/>
  <text x="860" y="207" class="node-num">9</text>
  <text x="860" y="235" class="node-label">Drug Dist</text>
  
  <!-- Branch 3: Randomization Method -->
  <circle cx="980" cy="170" r="20" fill="#8b5cf6" stroke="#7c3aed" stroke-width="2"/>
  <text x="980" y="177" class="node-num">10</text>
  <text x="980" y="205" class="node-label">Simple</text>
  
  <circle cx="980" cy="230" r="20" fill="#8b5cf6" stroke="#7c3aed" stroke-width="2"/>
  <text x="980" y="237" class="node-num">11</text>
  <text x="980" y="265" class="node-label">Block</text>
  
  <!-- End node -->
  <circle cx="1500" cy="200" r="25" fill="#dc2626" stroke="#b91c1c" stroke-width="3"/>
  <text x="1500" y="207" class="node-num">E</text>
  <text x="1500" y="240" class="node-label">END</text>
  
  <!-- Flow lines with clear labels -->
  <line x1="125" y1="200" x2="195" y2="200" stroke="#059669" stroke-width="4" marker-end="url(#arrow)"/>
  <text x="160" y="190" class="flow-label">a</text>
  
  <line x1="240" y1="200" x2="315" y2="200" stroke="#059669" stroke-width="4" marker-end="url(#arrow)"/>
  <text x="277" y="190" class="flow-label">b</text>
  
  <!-- Branch flows -->
  <line x1="360" y1="190" x2="460" y2="160" stroke="#f59e0b" stroke-width="4" marker-end="url(#arrow)"/>
  <text x="405" y="170" class="flow-label">c</text>
  
  <line x1="360" y1="210" x2="460" y2="240" stroke="#f59e0b" stroke-width="4" marker-end="url(#arrow)"/>
  <text x="405" y="230" class="flow-label">d</text>
  
  <!-- Legend with high contrast -->
  <rect x="100" y="400" width="1400" height="400" fill="#f8fafc" stroke="#cbd5e1" stroke-width="2" rx="8"/>
  <text x="800" y="440" class="legend-title" text-anchor="middle">Process Components Legend</text>
  
  <circle cx="150" cy="480" r="15" fill="#f59e0b"/>
  <text x="180" y="487" class="legend-text">Site Selection (c|d): Hospital A vs Hospital B enrollment</text>
  
  <circle cx="150" cy="520" r="15" fill="#ef4444"/>
  <text x="180" y="527" class="legend-text">Patient Stratification (f|g|h): Mild, Moderate, Severe cases</text>
  
  <circle cx="150" cy="560" r="15" fill="#8b5cf6"/>
  <text x="180" y="567" class="legend-text">Randomization Method (j|k): Simple vs Block randomization</text>
  
  <circle cx="150" cy="600" r="15" fill="#06b6d4"/>
  <text x="180" y="607" class="legend-text">Data Collection (m|n|o): Weekly, Bi-weekly, Monthly frequency</text>
  
  <text x="150" y="660" class="legend-text" font-weight="bold">Complete Pattern: ab(c|d)e(f|g|h)i(j|k)l(m|n|o)pqrst</text>
  <text x="150" y="690" class="legend-text">• 36 total possible execution paths (2×3×2×3 combinations)</text>
  <text x="150" y="720" class="legend-text">• Zero-knowledge verification ensures regulatory compliance</text>
  <text x="150" y="750" class="legend-text">• All paths require IRB approval and patient safety monitoring</text>
</svg>